<?xml version="1.0"?><svg xmlns="http://www.w3.org/2000/svg" xmlns:xlink="http://www.w3.org/1999/xlink" viewBox="85.54 53.38 741.53 136.62" preserveAspectRatio="xMidYMid" width="100%" height="100%"><clipPath id="7745"><rect x="0.3" y="0.3" width="1619.4" height="719.15" /></clipPath><g id="drawing"><rect x="85.54" y="53.38" width="100%" height="100%" fill="rgb(255, 255, 255)" /><g id="page" clip-path="url(#7745)"><g><text xml:space="preserve" text-anchor="start" text-rendering="geometricPrecision"><tspan x="85.54" y="79.83" font-family="Arial" font-size="10" fill="rgb(0, 0, 0)">H</tspan></text></g><g><text xml:space="preserve" text-anchor="middle" text-rendering="geometricPrecision"><tspan x="117.37" y="79.83" font-family="Arial" font-size="10" fill="rgb(0, 0, 0)">Tyr</tspan></text></g><g id="Solid"><path d="M93.6 76.23 L93.6 76.23 L93.6 75.93 L93.6 75.63 L111.2 75.63 L111.2 75.93 L111.2 76.23 Z" stroke="rgb(0, 0, 0)" stroke-width="0" fill-rule="evenodd" stroke-linejoin="miter" fill="rgb(0, 0, 0)" shape-rendering="geometricPrecision" /></g><g id="ObjectTag"><g><text xml:space="preserve" text-anchor="start" text-rendering="geometricPrecision"><tspan x="141.78" y="69.68" font-family="Arial" font-size="7.5" fill="rgb(135, 135, 135)">2</tspan></text></g></g><g><text xml:space="preserve" text-anchor="middle" text-rendering="geometricPrecision"><tspan x="141.78" y="79.83" font-family="Arial" font-size="7" fill="rgb(0, 0, 0)">D</tspan><tspan font-family="Arial" font-size="10" fill="rgb(0, 0, 0)">-Ala</tspan></text></g><g id="Solid"><path d="M124.3 76.23 L124.3 76.23 L124.3 75.93 L124.3 75.63 L129.4 75.63 L129.4 75.93 L129.4 76.23 Z" stroke="rgb(0, 0, 0)" stroke-width="0" fill-rule="evenodd" stroke-linejoin="miter" fill="rgb(0, 0, 0)" shape-rendering="geometricPrecision" /></g><g><text xml:space="preserve" text-anchor="middle" text-rendering="geometricPrecision"><tspan x="167.59" y="79.83" font-family="Arial" font-size="10" fill="rgb(0, 0, 0)">Asp</tspan></text></g><g id="ObjectTag"><g><text xml:space="preserve" text-anchor="start" text-rendering="geometricPrecision" display="none"><tspan x="123.94" y="118.18" font-family="Arial" font-size="7.5" fill="rgb(135, 135, 135)">3</tspan></text></g></g><g id="Solid"><path d="M154.1 76.23 L154.1 76.23 L154.1 75.93 L154.1 75.63 L158.8 75.63 L158.8 75.93 L158.8 76.23 Z" stroke="rgb(0, 0, 0)" stroke-width="0" fill-rule="evenodd" stroke-linejoin="miter" fill="rgb(0, 0, 0)" shape-rendering="geometricPrecision" /></g><g id="ObjectTag"><g><text xml:space="preserve" text-anchor="start" text-rendering="geometricPrecision" display="none"><tspan x="141.32" y="118.18" font-family="Arial" font-size="7.5" fill="rgb(135, 135, 135)">4</tspan></text></g></g><g><text xml:space="preserve" text-anchor="middle" text-rendering="geometricPrecision"><tspan x="189.19" y="79.83" font-family="Arial" font-size="10" fill="rgb(0, 0, 0)">Ala</tspan></text></g><g id="Solid"><path d="M177.3 76.23 L177.3 76.23 L177.3 75.93 L177.3 75.63 L181.8 75.63 L181.8 75.93 L181.8 76.23 Z" stroke="rgb(0, 0, 0)" stroke-width="0" fill-rule="evenodd" stroke-linejoin="miter" fill="rgb(0, 0, 0)" shape-rendering="geometricPrecision" /></g><g><text xml:space="preserve" text-anchor="middle" text-rendering="geometricPrecision"><tspan x="207.47" y="79.83" font-family="Arial" font-size="10" fill="rgb(0, 0, 0)">Ile</tspan></text></g><g id="ObjectTag"><g><text xml:space="preserve" text-anchor="start" text-rendering="geometricPrecision" display="none"><tspan x="158.69" y="118.18" font-family="Arial" font-size="7.5" fill="rgb(135, 135, 135)">5</tspan></text></g></g><g id="Solid"><path d="M197.4 76.23 L197.4 76.23 L197.4 75.93 L197.4 75.63 L201.6 75.63 L201.6 75.93 L201.6 76.23 Z" stroke="rgb(0, 0, 0)" stroke-width="0" fill-rule="evenodd" stroke-linejoin="miter" fill="rgb(0, 0, 0)" shape-rendering="geometricPrecision" /></g><g><text xml:space="preserve" text-anchor="middle" text-rendering="geometricPrecision"><tspan x="227.42" y="79.83" font-family="Arial" font-size="10" fill="rgb(0, 0, 0)">Phe</tspan></text></g><g id="ObjectTag"><g><text xml:space="preserve" text-anchor="start" text-rendering="geometricPrecision" display="none"><tspan x="176.07" y="118.18" font-family="Arial" font-size="7.5" fill="rgb(135, 135, 135)">6</tspan></text></g></g><g id="Solid"><path d="M213.8 76.23 L213.8 76.23 L213.8 75.93 L213.8 75.63 L217.7 75.63 L217.7 75.93 L217.7 76.23 Z" stroke="rgb(0, 0, 0)" stroke-width="0" fill-rule="evenodd" stroke-linejoin="miter" fill="rgb(0, 0, 0)" shape-rendering="geometricPrecision" /></g><g id="ObjectTag"><g><text xml:space="preserve" text-anchor="start" text-rendering="geometricPrecision" display="none"><tspan x="193.44" y="118.18" font-family="Arial" font-size="7.5" fill="rgb(135, 135, 135)">7</tspan></text></g></g><g><text xml:space="preserve" text-anchor="middle" text-rendering="geometricPrecision"><tspan x="249.58" y="79.83" font-family="Arial" font-size="10" fill="rgb(0, 0, 0)">Thr</tspan></text></g><g id="Solid"><path d="M237.4 76.23 L237.4 76.23 L237.4 75.93 L237.4 75.63 L243.1 75.63 L243.1 75.93 L243.1 76.23 Z" stroke="rgb(0, 0, 0)" stroke-width="0" fill-rule="evenodd" stroke-linejoin="miter" fill="rgb(0, 0, 0)" shape-rendering="geometricPrecision" /></g><g><text xml:space="preserve" text-anchor="middle" text-rendering="geometricPrecision"><tspan x="270.64" y="79.83" font-family="Arial" font-size="10" fill="rgb(0, 0, 0)">Gln</tspan></text></g><g id="ObjectTag"><g><text xml:space="preserve" text-anchor="start" text-rendering="geometricPrecision"><tspan x="270.64" y="69.68" font-family="Arial" font-size="7.5" fill="rgb(135, 135, 135)">8</tspan></text></g></g><g id="Solid"><path d="M257.3 76.23 L257.3 76.23 L257.3 75.93 L257.3 75.63 L261.8 75.63 L261.8 75.93 L261.8 76.23 Z" stroke="rgb(0, 0, 0)" stroke-width="0" fill-rule="evenodd" stroke-linejoin="miter" fill="rgb(0, 0, 0)" shape-rendering="geometricPrecision" /></g><g id="ObjectTag"><g><text xml:space="preserve" text-anchor="start" text-rendering="geometricPrecision" display="none"><tspan x="228.19" y="118.18" font-family="Arial" font-size="7.5" fill="rgb(135, 135, 135)">9</tspan></text></g></g><g><text xml:space="preserve" text-anchor="middle" text-rendering="geometricPrecision"><tspan x="291.99" y="79.83" font-family="Arial" font-size="10" fill="rgb(0, 0, 0)">Ser</tspan></text></g><g id="Solid"><path d="M279.4 76.23 L279.4 76.23 L279.4 75.93 L279.4 75.63 L283.9 75.63 L283.9 75.93 L283.9 76.23 Z" stroke="rgb(0, 0, 0)" stroke-width="0" fill-rule="evenodd" stroke-linejoin="miter" fill="rgb(0, 0, 0)" shape-rendering="geometricPrecision" /></g><g><text xml:space="preserve" text-anchor="middle" text-rendering="geometricPrecision"><tspan x="312.77" y="79.83" font-family="Arial" font-size="10" fill="rgb(0, 0, 0)">Tyr</tspan></text></g><g id="Solid"><path d="M300 76.23 L300 76.23 L300 75.93 L300 75.63 L306.6 75.63 L306.6 75.93 L306.6 76.23 Z" stroke="rgb(0, 0, 0)" stroke-width="0" fill-rule="evenodd" stroke-linejoin="miter" fill="rgb(0, 0, 0)" shape-rendering="geometricPrecision" /></g><g><text xml:space="preserve" text-anchor="middle" text-rendering="geometricPrecision"><tspan x="339.31" y="79.83" font-family="Arial" font-size="10" fill="rgb(0, 0, 0)">Arg</tspan></text></g><g id="Solid"><path d="M319.7 76.23 L319.7 76.23 L319.7 75.93 L319.7 75.63 L331.4 75.63 L331.4 75.93 L331.4 76.23 Z" stroke="rgb(0, 0, 0)" stroke-width="0" fill-rule="evenodd" stroke-linejoin="miter" fill="rgb(0, 0, 0)" shape-rendering="geometricPrecision" /></g><g id="ObjectTag"><g><text xml:space="preserve" text-anchor="start" text-rendering="geometricPrecision" display="none"><tspan x="297.69" y="118.18" font-family="Arial" font-size="7.5" fill="rgb(135, 135, 135)">12</tspan></text></g></g><g><text xml:space="preserve" text-anchor="middle" text-rendering="geometricPrecision"><tspan x="360.64" y="79.83" font-family="Arial" font-size="10" fill="rgb(0, 0, 0)">Lys</tspan></text></g><g id="Solid"><path d="M348.1 76.23 L348.1 76.23 L348.1 75.93 L348.1 75.63 L352 75.63 L352 75.93 L352 76.23 Z" stroke="rgb(0, 0, 0)" stroke-width="0" fill-rule="evenodd" stroke-linejoin="miter" fill="rgb(0, 0, 0)" shape-rendering="geometricPrecision" /></g><g id="ObjectTag"><g><text xml:space="preserve" text-anchor="start" text-rendering="geometricPrecision" display="none"><tspan x="315.07" y="118.18" font-family="Arial" font-size="7.5" fill="rgb(135, 135, 135)">13</tspan></text></g></g><g><text xml:space="preserve" text-anchor="middle" text-rendering="geometricPrecision"><tspan x="381.4" y="79.83" font-family="Arial" font-size="10" fill="rgb(0, 0, 0)">Val</tspan></text></g><g id="Solid"><path d="M369.1 76.23 L369.1 76.23 L369.1 75.93 L369.1 75.63 L373.8 75.63 L373.8 75.93 L373.8 76.23 Z" stroke="rgb(0, 0, 0)" stroke-width="0" fill-rule="evenodd" stroke-linejoin="miter" fill="rgb(0, 0, 0)" shape-rendering="geometricPrecision" /></g><g><text xml:space="preserve" text-anchor="middle" text-rendering="geometricPrecision"><tspan x="402.73" y="79.83" font-family="Arial" font-size="10" fill="rgb(0, 0, 0)">Leu</tspan></text></g><g id="ObjectTag"><g><text xml:space="preserve" text-anchor="start" text-rendering="geometricPrecision" display="none"><tspan x="332.44" y="118.18" font-family="Arial" font-size="7.5" fill="rgb(135, 135, 135)">14</tspan></text></g></g><g id="Solid"><path d="M388.8 76.23 L388.8 76.23 L388.8 75.93 L388.8 75.63 L393.6 75.63 L393.6 75.93 L393.6 76.23 Z" stroke="rgb(0, 0, 0)" stroke-width="0" fill-rule="evenodd" stroke-linejoin="miter" fill="rgb(0, 0, 0)" shape-rendering="geometricPrecision" /></g><g id="ObjectTag"><g><text xml:space="preserve" text-anchor="start" text-rendering="geometricPrecision"><tspan x="424.06" y="69.68" font-family="Arial" font-size="7.5" fill="rgb(135, 135, 135)">15</tspan></text></g></g><g><text xml:space="preserve" text-anchor="middle" text-rendering="geometricPrecision"><tspan x="424.06" y="79.83" font-family="Arial" font-size="10" fill="rgb(0, 0, 0)">Ala</tspan></text></g><g id="Solid"><path d="M412 76.23 L412 76.23 L412 75.93 L412 75.63 L416.7 75.63 L416.7 75.93 L416.7 76.23 Z" stroke="rgb(0, 0, 0)" stroke-width="0" fill-rule="evenodd" stroke-linejoin="miter" fill="rgb(0, 0, 0)" shape-rendering="geometricPrecision" /></g><g id="ObjectTag"><g><text xml:space="preserve" text-anchor="start" text-rendering="geometricPrecision" display="none"><tspan x="444.84" y="69.68" font-family="Arial" font-size="7.5" fill="rgb(135, 135, 135)">16</tspan></text></g></g><g><text xml:space="preserve" text-anchor="middle" text-rendering="geometricPrecision"><tspan x="444.84" y="79.83" font-family="Arial" font-size="10" fill="rgb(0, 0, 0)">Gln</tspan></text></g><g id="Solid"><path d="M432.2 76.23 L432.2 76.23 L432.2 75.93 L432.2 75.63 L436 75.63 L436 75.93 L436 76.23 Z" stroke="rgb(0, 0, 0)" stroke-width="0" fill-rule="evenodd" stroke-linejoin="miter" fill="rgb(0, 0, 0)" shape-rendering="geometricPrecision" /></g><g id="ObjectTag"><g><text xml:space="preserve" text-anchor="start" text-rendering="geometricPrecision" display="none"><tspan x="384.57" y="118.18" font-family="Arial" font-size="7.5" fill="rgb(135, 135, 135)">17</tspan></text></g></g><g><text xml:space="preserve" text-anchor="middle" text-rendering="geometricPrecision"><tspan x="466.73" y="79.83" font-family="Arial" font-size="10" fill="rgb(0, 0, 0)">Leu</tspan></text></g><g id="Solid"><path d="M453.6 76.23 L453.6 76.23 L453.6 75.93 L453.6 75.63 L457.6 75.63 L457.6 75.93 L457.6 76.23 Z" stroke="rgb(0, 0, 0)" stroke-width="0" fill-rule="evenodd" stroke-linejoin="miter" fill="rgb(0, 0, 0)" shape-rendering="geometricPrecision" /></g><g><text xml:space="preserve" text-anchor="middle" text-rendering="geometricPrecision"><tspan x="488.63" y="79.83" font-family="Arial" font-size="10" fill="rgb(0, 0, 0)">Ser</tspan></text></g><g id="ObjectTag"><g><text xml:space="preserve" text-anchor="start" text-rendering="geometricPrecision" display="none"><tspan x="401.94" y="118.18" font-family="Arial" font-size="7.5" fill="rgb(135, 135, 135)">18</tspan></text></g></g><g id="Solid"><path d="M476 76.23 L476 76.23 L476 75.93 L476 75.63 L480.5 75.63 L480.5 75.93 L480.5 76.23 Z" stroke="rgb(0, 0, 0)" stroke-width="0" fill-rule="evenodd" stroke-linejoin="miter" fill="rgb(0, 0, 0)" shape-rendering="geometricPrecision" /></g><g id="ObjectTag"><g><text xml:space="preserve" text-anchor="start" text-rendering="geometricPrecision" display="none"><tspan x="419.32" y="118.18" font-family="Arial" font-size="7.5" fill="rgb(135, 135, 135)">19</tspan></text></g></g><g><text xml:space="preserve" text-anchor="middle" text-rendering="geometricPrecision"><tspan x="509.4" y="79.83" font-family="Arial" font-size="10" fill="rgb(0, 0, 0)">Ala</tspan></text></g><g id="Solid"><path d="M496.7 76.23 L496.7 76.23 L496.7 75.93 L496.7 75.63 L502 75.63 L502 75.93 L502 76.23 Z" stroke="rgb(0, 0, 0)" stroke-width="0" fill-rule="evenodd" stroke-linejoin="miter" fill="rgb(0, 0, 0)" shape-rendering="geometricPrecision" /></g><g><text xml:space="preserve" text-anchor="middle" text-rendering="geometricPrecision"><tspan x="530.18" y="79.83" font-family="Arial" font-size="10" fill="rgb(0, 0, 0)">Arg</tspan></text></g><g id="Solid"><path d="M517.6 76.23 L517.6 76.23 L517.6 75.93 L517.6 75.63 L522.2 75.63 L522.2 75.93 L522.2 76.23 Z" stroke="rgb(0, 0, 0)" stroke-width="0" fill-rule="evenodd" stroke-linejoin="miter" fill="rgb(0, 0, 0)" shape-rendering="geometricPrecision" /></g><g><text xml:space="preserve" text-anchor="middle" text-rendering="geometricPrecision"><tspan x="557.27" y="79.83" font-family="Arial" font-size="10" fill="rgb(0, 0, 0)">Lys</tspan></text></g><g id="Solid"><path d="M538.9 76.23 L538.9 76.23 L538.9 75.93 L538.9 75.63 L548.7 75.63 L548.7 75.93 L548.7 76.23 Z" stroke="rgb(0, 0, 0)" stroke-width="0" fill-rule="evenodd" stroke-linejoin="miter" fill="rgb(0, 0, 0)" shape-rendering="geometricPrecision" /></g><g id="ObjectTag"><g><text xml:space="preserve" text-anchor="start" text-rendering="geometricPrecision" display="none"><tspan x="488.82" y="118.18" font-family="Arial" font-size="7.5" fill="rgb(135, 135, 135)">22</tspan></text></g></g><g><text xml:space="preserve" text-anchor="middle" text-rendering="geometricPrecision"><tspan x="579.16" y="79.83" font-family="Arial" font-size="10" fill="rgb(0, 0, 0)">Leu</tspan></text></g><g id="Solid"><path d="M565.7 76.23 L565.7 76.23 L565.7 75.93 L565.7 75.63 L570 75.63 L570 75.93 L570 76.23 Z" stroke="rgb(0, 0, 0)" stroke-width="0" fill-rule="evenodd" stroke-linejoin="miter" fill="rgb(0, 0, 0)" shape-rendering="geometricPrecision" /></g><g><text xml:space="preserve" text-anchor="middle" text-rendering="geometricPrecision"><tspan x="601.6" y="79.83" font-family="Arial" font-size="10" fill="rgb(0, 0, 0)">Leu</tspan></text></g><g id="ObjectTag"><g><text xml:space="preserve" text-anchor="start" text-rendering="geometricPrecision" display="none"><tspan x="506.19" y="118.18" font-family="Arial" font-size="7.5" fill="rgb(135, 135, 135)">23</tspan></text></g></g><g id="Solid"><path d="M588.4 76.23 L588.4 76.23 L588.4 75.93 L588.4 75.63 L592.4 75.63 L592.4 75.93 L592.4 76.23 Z" stroke="rgb(0, 0, 0)" stroke-width="0" fill-rule="evenodd" stroke-linejoin="miter" fill="rgb(0, 0, 0)" shape-rendering="geometricPrecision" /></g><g id="ObjectTag"><g><text xml:space="preserve" text-anchor="start" text-rendering="geometricPrecision" display="none"><tspan x="523.57" y="118.18" font-family="Arial" font-size="7.5" fill="rgb(135, 135, 135)">24</tspan></text></g></g><g><text xml:space="preserve" text-anchor="middle" text-rendering="geometricPrecision"><tspan x="623.49" y="79.83" font-family="Arial" font-size="10" fill="rgb(0, 0, 0)">Gln</tspan></text></g><g id="Solid"><path d="M610.9 76.23 L610.9 76.23 L610.9 75.93 L610.9 75.63 L614.7 75.63 L614.7 75.93 L614.7 76.23 Z" stroke="rgb(0, 0, 0)" stroke-width="0" fill-rule="evenodd" stroke-linejoin="miter" fill="rgb(0, 0, 0)" shape-rendering="geometricPrecision" /></g><g id="ObjectTag"><g><text xml:space="preserve" text-anchor="start" text-rendering="geometricPrecision" display="none"><tspan x="540.94" y="118.18" font-family="Arial" font-size="7.5" fill="rgb(135, 135, 135)">25</tspan></text></g></g><g><text xml:space="preserve" text-anchor="middle" text-rendering="geometricPrecision"><tspan x="645.66" y="79.83" font-family="Arial" font-size="10" fill="rgb(0, 0, 0)">Asp</tspan></text></g><g id="Solid"><path d="M632.2 76.23 L632.2 76.23 L632.2 75.93 L632.2 75.63 L636.9 75.63 L636.9 75.93 L636.9 76.23 Z" stroke="rgb(0, 0, 0)" stroke-width="0" fill-rule="evenodd" stroke-linejoin="miter" fill="rgb(0, 0, 0)" shape-rendering="geometricPrecision" /></g><g><text xml:space="preserve" text-anchor="middle" text-rendering="geometricPrecision"><tspan x="665.33" y="79.83" font-family="Arial" font-size="10" fill="rgb(0, 0, 0)">Ile</tspan></text></g><g id="ObjectTag"><g><text xml:space="preserve" text-anchor="start" text-rendering="geometricPrecision" display="none"><tspan x="558.32" y="118.18" font-family="Arial" font-size="7.5" fill="rgb(135, 135, 135)">26</tspan></text></g></g><g id="Solid"><path d="M655.4 76.23 L655.4 76.23 L655.4 75.93 L655.4 75.63 L659.4 75.63 L659.4 75.93 L659.4 76.23 Z" stroke="rgb(0, 0, 0)" stroke-width="0" fill-rule="evenodd" stroke-linejoin="miter" fill="rgb(0, 0, 0)" shape-rendering="geometricPrecision" /></g><g><text xml:space="preserve" text-anchor="middle" text-rendering="geometricPrecision"><tspan x="684.72" y="79.83" font-family="Arial" font-size="10" fill="rgb(0, 0, 0)">Leu</tspan></text></g><g id="ObjectTag"><g><text xml:space="preserve" text-anchor="start" text-rendering="geometricPrecision"><tspan x="684.72" y="69.68" font-family="Arial" font-size="7.5" fill="rgb(135, 135, 135)">27</tspan></text></g></g><g id="Solid"><path d="M671.7 76.23 L671.7 76.23 L671.7 75.93 L671.7 75.63 L675.6 75.63 L675.6 75.93 L675.6 76.23 Z" stroke="rgb(0, 0, 0)" stroke-width="0" fill-rule="evenodd" stroke-linejoin="miter" fill="rgb(0, 0, 0)" shape-rendering="geometricPrecision" /></g><g><text xml:space="preserve" text-anchor="middle" text-rendering="geometricPrecision"><tspan x="706.61" y="79.83" font-family="Arial" font-size="10" fill="rgb(0, 0, 0)">Ser</tspan></text></g><g id="ObjectTag"><g><text xml:space="preserve" text-anchor="start" text-rendering="geometricPrecision" display="none"><tspan x="593.07" y="118.18" font-family="Arial" font-size="7.5" fill="rgb(135, 135, 135)">28</tspan></text></g></g><g id="Solid"><path d="M694 76.23 L694 76.23 L694 75.93 L694 75.63 L698.5 75.63 L698.5 75.93 L698.5 76.23 Z" stroke="rgb(0, 0, 0)" stroke-width="0" fill-rule="evenodd" stroke-linejoin="miter" fill="rgb(0, 0, 0)" shape-rendering="geometricPrecision" /></g><g><text xml:space="preserve" text-anchor="middle" text-rendering="geometricPrecision"><tspan x="727.96" y="79.83" font-family="Arial" font-size="10" fill="rgb(0, 0, 0)">Arg</tspan></text></g><g id="ObjectTag"><g><text xml:space="preserve" text-anchor="start" text-rendering="geometricPrecision" display="none"><tspan x="610.44" y="118.18" font-family="Arial" font-size="7.5" fill="rgb(135, 135, 135)">29</tspan></text></g></g><g id="Solid"><path d="M714.6 76.23 L714.6 76.23 L714.6 75.93 L714.6 75.63 L720 75.63 L720 75.93 L720 76.23 Z" stroke="rgb(0, 0, 0)" stroke-width="0" fill-rule="evenodd" stroke-linejoin="miter" fill="rgb(0, 0, 0)" shape-rendering="geometricPrecision" /></g><g id="Solid"><path d="M734.94 74.51 L734.94 74.51 L734.87 74.21 L734.8 73.92 L737.97 73.13 L738.05 73.43 L738.12 73.72 Z" stroke="rgb(0, 0, 0)" stroke-width="0" fill-rule="evenodd" stroke-linejoin="miter" fill="rgb(0, 0, 0)" shape-rendering="geometricPrecision" /></g><g><text xml:space="preserve" text-anchor="start" text-rendering="geometricPrecision"><tspan x="776.1" y="83.45" font-family="Arial" font-size="10" fill="rgb(0, 0, 0)">NH</tspan><tspan font-family="Arial" dy="2.26" font-size="7.5" fill="rgb(0, 0, 0)">2</tspan></text></g><g id="Solid"><path d="M767.23 72.7 L767.23 72.7 L767.23 72.35 L767.23 72 L775.66 76.87 L775.51 77.13 L775.36 77.39 Z" stroke="rgb(0, 0, 0)" stroke-width="0" fill-rule="evenodd" stroke-linejoin="miter" fill="rgb(0, 0, 0)" shape-rendering="geometricPrecision" /></g><g><text xml:space="preserve" text-anchor="start" text-rendering="geometricPrecision"><tspan x="738.78" y="67.9" font-family="Arial" font-size="10" fill="rgb(0, 0, 0)">H</tspan><tspan x="738.78" y="78.09" font-family="Arial" font-size="10" fill="rgb(0, 0, 0)">N</tspan></text></g><g><text xml:space="preserve" text-anchor="start" text-rendering="geometricPrecision"><tspan x="763.33" y="61.9" font-family="Arial" font-size="10" fill="rgb(0, 0, 0)">O</tspan></text></g><g><text xml:space="preserve" text-anchor="end" text-rendering="geometricPrecision"><tspan x="733.55" y="140.82" font-family="Arial" font-size="10" fill="rgb(0, 0, 0)">HN</tspan></text></g><g id="Solid"><line x1="765.94" y1="72.35" x2="765.94" y2="63.7" stroke="rgb(0, 0, 0)" stroke-width="0.6" shape-rendering="auto" /><path d="M768.22 72.58 L768.22 72.58 L768.82 72.92 L768.82 63.7 L768.22 63.7 Z" stroke="rgb(0, 0, 0)" stroke-width="0" fill-rule="evenodd" stroke-linejoin="miter" fill="rgb(0, 0, 0)" shape-rendering="geometricPrecision" /><path d="M765.64 72.92 L765.64 72.92 L766.24 72.58 L766.24 63.7 L765.64 63.7 Z" stroke="rgb(0, 0, 0)" stroke-width="0" fill-rule="evenodd" stroke-linejoin="miter" fill="rgb(0, 0, 0)" shape-rendering="geometricPrecision" /></g><g id="Solid"><path d="M754.8 79.17 L754.8 79.17 L754.8 79.52 L754.8 79.87 L746.44 75.04 L746.59 74.78 L746.74 74.52 Z" stroke="rgb(0, 0, 0)" stroke-width="0" fill-rule="evenodd" stroke-linejoin="miter" fill="rgb(0, 0, 0)" shape-rendering="geometricPrecision" /></g><g id="Solid"><path d="M754.8 79.87 L754.8 79.87 L754.8 79.52 L754.8 79.17 L767.23 72 L767.23 72.35 L767.23 72.7 Z" stroke="rgb(0, 0, 0)" stroke-width="0" fill-rule="evenodd" stroke-linejoin="miter" fill="rgb(0, 0, 0)" shape-rendering="geometricPrecision" /></g><g id="Wedged Hash End Bond"><path d="M756.3 93.87 L756.3 93.87 L753.3 93.87 L753.35 93.27 L756.25 93.27 Z" stroke="rgb(0, 0, 0)" stroke-width="0" fill-rule="evenodd" stroke-linejoin="miter" fill="rgb(0, 0, 0)" shape-rendering="geometricPrecision" /><path d="M756.07 91.12 L756.07 91.12 L753.53 91.12 L753.58 90.52 L756.02 90.52 Z" stroke="rgb(0, 0, 0)" stroke-width="0" fill-rule="evenodd" stroke-linejoin="miter" fill="rgb(0, 0, 0)" shape-rendering="geometricPrecision" /><path d="M755.84 88.37 L755.84 88.37 L753.76 88.37 L753.81 87.77 L755.79 87.77 Z" stroke="rgb(0, 0, 0)" stroke-width="0" fill-rule="evenodd" stroke-linejoin="miter" fill="rgb(0, 0, 0)" shape-rendering="geometricPrecision" /><path d="M755.61 85.62 L755.61 85.62 L753.99 85.62 L754.04 85.02 L755.56 85.02 Z" stroke="rgb(0, 0, 0)" stroke-width="0" fill-rule="evenodd" stroke-linejoin="miter" fill="rgb(0, 0, 0)" shape-rendering="geometricPrecision" /><path d="M755.38 82.87 L755.38 82.87 L754.22 82.87 L754.27 82.27 L755.33 82.27 Z" stroke="rgb(0, 0, 0)" stroke-width="0" fill-rule="evenodd" stroke-linejoin="miter" fill="rgb(0, 0, 0)" shape-rendering="geometricPrecision" /><path d="M755.15 80.12 L755.15 80.12 L754.45 80.12 L754.5 79.52 L755.1 79.52 Z" stroke="rgb(0, 0, 0)" stroke-width="0" fill-rule="evenodd" stroke-linejoin="miter" fill="rgb(0, 0, 0)" shape-rendering="geometricPrecision" /></g><g id="Solid"><path d="M754.65 93.61 L754.65 93.61 L754.8 93.87 L754.95 94.13 L742.68 101.22 L742.38 101.05 L742.08 100.88 Z" stroke="rgb(0, 0, 0)" stroke-width="0" fill-rule="evenodd" stroke-linejoin="miter" fill="rgb(0, 0, 0)" shape-rendering="geometricPrecision" /></g><g id="Solid"><path d="M742.08 100.88 L742.08 100.88 L742.38 101.05 L742.68 101.22 L742.68 115.57 L742.38 115.4 L742.08 115.23 Z" stroke="rgb(0, 0, 0)" stroke-width="0" fill-rule="evenodd" stroke-linejoin="miter" fill="rgb(0, 0, 0)" shape-rendering="geometricPrecision" /></g><g id="Solid"><path d="M742.08 115.23 L742.08 115.23 L742.38 115.4 L742.68 115.57 L730.25 122.74 L729.95 122.57 L729.65 122.4 Z" stroke="rgb(0, 0, 0)" stroke-width="0" fill-rule="evenodd" stroke-linejoin="miter" fill="rgb(0, 0, 0)" shape-rendering="geometricPrecision" /></g><g id="Solid"><path d="M729.65 122.4 L729.65 122.4 L729.95 122.57 L730.25 122.74 L730.25 132.1 L729.95 132.1 L729.65 132.1 Z" stroke="rgb(0, 0, 0)" stroke-width="0" fill-rule="evenodd" stroke-linejoin="miter" fill="rgb(0, 0, 0)" shape-rendering="geometricPrecision" /></g><g><text xml:space="preserve" text-anchor="middle" text-rendering="geometricPrecision"><tspan x="751.83" y="186.95" font-family="Arial" font-size="10" fill="rgb(0, 0, 0)">N</tspan><tspan font-family="Arial" dy="-4.07" font-size="7.5" fill="rgb(0, 0, 0)">6</tspan><tspan font-family="Arial" dy="4.07" font-size="10" fill="rgb(0, 0, 0)">-maleimidopropionyl-Lys (DAC)</tspan></text></g><g><text xml:space="preserve" text-anchor="start" text-rendering="geometricPrecision"><tspan x="738.52" y="162.42" font-family="Arial" font-size="10" fill="rgb(0, 0, 0)">O</tspan></text></g><g><text xml:space="preserve" text-anchor="start" text-rendering="geometricPrecision"><tspan x="767.26" y="116.32" font-family="Arial" font-size="10" fill="rgb(0, 0, 0)">O</tspan></text></g><g><text xml:space="preserve" text-anchor="start" text-rendering="geometricPrecision"><tspan x="792.81" y="160.59" font-family="Arial" font-size="10" fill="rgb(0, 0, 0)">O</tspan></text></g><g id="Solid"><line x1="743.72" y1="144.12" x2="743.72" y2="153.6" stroke="rgb(0, 0, 0)" stroke-width="0.6" shape-rendering="auto" /><path d="M741.42 143.89 L741.42 143.89 L740.82 143.54 L740.82 153.6 L741.42 153.6 Z" stroke="rgb(0, 0, 0)" stroke-width="0" fill-rule="evenodd" stroke-linejoin="miter" fill="rgb(0, 0, 0)" shape-rendering="geometricPrecision" /><path d="M744.02 143.54 L744.02 143.54 L743.42 143.89 L743.42 153.6 L744.02 153.6 Z" stroke="rgb(0, 0, 0)" stroke-width="0" fill-rule="evenodd" stroke-linejoin="miter" fill="rgb(0, 0, 0)" shape-rendering="geometricPrecision" /></g><g><text xml:space="preserve" text-anchor="start" text-rendering="geometricPrecision"><tspan x="776.23" y="140.82" font-family="Arial" font-size="10" fill="rgb(0, 0, 0)">N</tspan></text></g><g id="Solid"><path d="M742.42 144.47 L742.42 144.47 L742.42 144.12 L742.42 143.77 L754.89 136.57 L754.89 136.92 L754.89 137.27 Z" stroke="rgb(0, 0, 0)" stroke-width="0" fill-rule="evenodd" stroke-linejoin="miter" fill="rgb(0, 0, 0)" shape-rendering="geometricPrecision" /></g><g id="Solid"><path d="M754.89 137.27 L754.89 137.27 L754.89 136.92 L754.89 136.57 L767.36 143.77 L767.36 144.12 L767.36 144.47 Z" stroke="rgb(0, 0, 0)" stroke-width="0" fill-rule="evenodd" stroke-linejoin="miter" fill="rgb(0, 0, 0)" shape-rendering="geometricPrecision" /></g><g id="Solid"><line x1="780.42" y1="123.52" x2="774.82" y2="117.91" stroke="rgb(0, 0, 0)" stroke-width="0.6" shape-rendering="auto" /><path d="M782.25 122.1 L782.25 122.1 L782.95 121.95 L776.86 115.86 L776.44 116.29 Z" stroke="rgb(0, 0, 0)" stroke-width="0" fill-rule="evenodd" stroke-linejoin="miter" fill="rgb(0, 0, 0)" shape-rendering="geometricPrecision" /><path d="M780.85 124.37 L780.85 124.37 L780.93 123.6 L775.03 117.7 L774.6 118.12 Z" stroke="rgb(0, 0, 0)" stroke-width="0" fill-rule="evenodd" stroke-linejoin="miter" fill="rgb(0, 0, 0)" shape-rendering="geometricPrecision" /></g><g id="Solid"><path d="M781.62 122.85 L781.62 122.85 L781.34 122.6 L781.06 122.35 L795.57 119.27 L795.42 119.61 L795.27 119.95 Z" stroke="rgb(0, 0, 0)" stroke-width="0" fill-rule="evenodd" stroke-linejoin="miter" fill="rgb(0, 0, 0)" shape-rendering="geometricPrecision" /></g><g id="Solid"><path d="M795.27 119.95 L795.27 119.95 L795.42 119.61 L795.57 119.27 L802.99 132.12 L802.62 132.08 L802.25 132.04 Z" stroke="rgb(0, 0, 0)" stroke-width="0" fill-rule="evenodd" stroke-linejoin="miter" fill="rgb(0, 0, 0)" shape-rendering="geometricPrecision" /><line x1="794.12" y1="122.54" x2="799.43" y2="131.75" stroke="rgb(0, 0, 0)" stroke-width="0.6" shape-rendering="auto" /></g><g id="Solid"><path d="M802.25 132.04 L802.25 132.04 L802.62 132.08 L802.99 132.12 L793.07 143.14 L792.99 142.78 L792.91 142.42 Z" stroke="rgb(0, 0, 0)" stroke-width="0" fill-rule="evenodd" stroke-linejoin="miter" fill="rgb(0, 0, 0)" shape-rendering="geometricPrecision" /></g><g id="Solid"><line x1="794.24" y1="142.45" x2="796.67" y2="151.52" stroke="rgb(0, 0, 0)" stroke-width="0.6" shape-rendering="auto" /><path d="M791.92 142.63 L791.92 142.63 L791.21 142.32 L793.88 152.27 L794.45 152.11 Z" stroke="rgb(0, 0, 0)" stroke-width="0" fill-rule="evenodd" stroke-linejoin="miter" fill="rgb(0, 0, 0)" shape-rendering="geometricPrecision" /><path d="M794.36 141.71 L794.36 141.71 L793.88 142.24 L796.38 151.6 L796.96 151.44 Z" stroke="rgb(0, 0, 0)" stroke-width="0" fill-rule="evenodd" stroke-linejoin="miter" fill="rgb(0, 0, 0)" shape-rendering="geometricPrecision" /></g><g id="Solid"><path d="M781.06 122.35 L781.06 122.35 L781.34 122.6 L781.62 122.85 L780.64 132.14 L780.34 132.11 L780.04 132.08 Z" stroke="rgb(0, 0, 0)" stroke-width="0" fill-rule="evenodd" stroke-linejoin="miter" fill="rgb(0, 0, 0)" shape-rendering="geometricPrecision" /></g><g id="Solid"><path d="M792.91 142.42 L792.91 142.42 L792.99 142.78 L793.07 143.14 L784.04 139.12 L784.16 138.85 L784.28 138.57 Z" stroke="rgb(0, 0, 0)" stroke-width="0" fill-rule="evenodd" stroke-linejoin="miter" fill="rgb(0, 0, 0)" shape-rendering="geometricPrecision" /></g><g id="Solid"><path d="M767.36 144.47 L767.36 144.47 L767.36 144.12 L767.36 143.77 L775.46 139.09 L775.61 139.35 L775.76 139.61 Z" stroke="rgb(0, 0, 0)" stroke-width="0" fill-rule="evenodd" stroke-linejoin="miter" fill="rgb(0, 0, 0)" shape-rendering="geometricPrecision" /></g><g id="Solid"><path d="M734.04 139.63 L734.04 139.63 L734.19 139.37 L734.34 139.11 L742.42 143.77 L742.42 144.12 L742.42 144.47 Z" stroke="rgb(0, 0, 0)" stroke-width="0" fill-rule="evenodd" stroke-linejoin="miter" fill="rgb(0, 0, 0)" shape-rendering="geometricPrecision" /></g></g></g></svg>