<?xml version="1.0"?>

<!DOCTYPE svg PUBLIC '-//W3C//DTD SVG 1.0//EN' 'http://www.w3.org/TR/2001/REC-SVG-20010904/DTD/svg10.dtd'>
<svg fill-opacity="1" xmlns:xlink="http://www.w3.org/1999/xlink" color-rendering="auto" color-interpolation="auto" stroke="black" text-rendering="auto" stroke-linecap="square" width="2110" stroke-miterlimit="10" stroke-opacity="1" shape-rendering="auto" fill="black" stroke-dasharray="none" font-weight="normal" stroke-width="1" height="1450" xmlns="http://www.w3.org/2000/svg" font-family="&apos;Dialog&apos;" font-style="normal" stroke-linejoin="miter" font-size="12" stroke-dashoffset="0" image-rendering="auto">
  <!--Generated by Marvin with Batik SVG Generator
MolSource:
<?xml version="1.0" encoding="MacRoman"?><cml xmlns="http://www.chemaxon.com" xmlns:xsi="http://www.w3.org/2001/XMLSchema-instance" xsi:schemaLocation="http://www.chemaxon.com/marvin/help/formats/schema/mrvSchema_6_2_0.xsd" version="ChemAxon file format v6.2, generated by v6.2.0">
<MDocument atomSetFont="0:Arial-PLAIN-18" bondSetLineThickness="0:0.06"><MChemicalStruct><molecule molID="m1"><propertyList><property dictRef="type" title="type"><scalar>systematic</scalar></property></propertyList><atomArray atomID="a1 a2 a3 a4 a5 a6 a7 a8 a9 a10 a11 a12 a13 a14 a15 a16 a17 a18 a19 a20 a21 a22 a23 a24 a25 a26 a27 a28 a29 a30 a31 a32 a33 a34 a35 a36 a37 a38 a39 a40 a41 a42 a43 a44 a45 a46 a47 a48 a49 a50 a51 a52" elementType="C C N O N C C C C N C C O N C C C C C C C C C O N C C C C C C C C C C C C C O N C C C O N C C C N C N C" x2="4.454999923706055 5.78867904553409 7.122358167362126 5.788679045534091 3.1213208018780194 4.454999923706055 5.78867904553409 5.78867904553409 7.122358167362126 7.122358167362126 1.7876416800499835 0.45396255822194864 1.787641680049982 -0.8797165636060875 0.45396255822194975 -2.213395685434123 -3.5470748072621587 -0.6349818848053335 -0.2364194501873318 -1.3253878507829635 -2.812918685996598 -3.2114811206145992 -2.1225127200189675 -2.213395685434123 -4.8807539290901945 -3.547074807262159 -2.4581303642348757 -2.856692798852878 -1.767724398257247 -0.2801935630436141 0.11836887157439158 -0.9705995290212401 -2.166352287111985 -1.077449340753089 0.4100814944605453 0.8087093833152834 -6.214433050918229 -7.548112172746265 -6.214433050918229 -8.8817912945743 -7.548112172746264 -10.215470416402336 -11.549149538230372 -10.215470416402336 -12.882828660058408 -12.319149538230372 -10.779149538230373 -8.318112172746265 -7.691768581353857 -8.83615124347741 -10.169837140447012 -9.849672362650672" y2="-8.635000228881836 -7.865000228881836 -8.635000228881836 -6.325000228881836 -7.8650002288818355 -10.175000228881835 -10.945000228881835 -12.485000228881834 -13.255000228881833 -14.795000228881833 -8.635000228881834 -7.865000228881833 -10.175000228881835 -8.635000228881832 -6.325000228881833 -7.865000228881832 -8.635000228881832 -5.23605578585455 -3.748524950640916 -2.6595565500452834 -3.0581189846632846 -4.545649819876918 -5.634618220472551 -6.325000228881832 -7.865000228881833 -10.175000228881832 -11.263944671909115 -12.751475507122748 -13.840443907718381 -13.44188147310038 -11.954350637886748 -10.865382237291115 -15.327992280450788 -16.416978218565195 -16.018415783947194 -14.530867411214787 -8.635000228881832 -7.865000228881833 -10.175000228881832 -8.635000228881832 -6.325000228881833 -7.865000228881832 -8.635000228881832 -6.325000228881832 -7.865000228881833 -9.968679350709868 -9.968679350709868 -4.991321107053797 -3.5844473723065517 -2.55404329298207 -3.324047204611877 -4.830313701323578"></atomArray><bondArray><bond id="b1" atomRefs2="a1 a2" order="1"></bond><bond id="b2" atomRefs2="a2 a3" order="1"></bond><bond id="b3" atomRefs2="a2 a4" order="2"></bond><bond id="b4" atomRefs2="a1 a5" order="1"></bond><bond id="b5" atomRefs2="a1 a6" order="1"><bondStereo>H</bondStereo></bond><bond id="b6" atomRefs2="a6 a7" order="1"></bond><bond id="b7" atomRefs2="a7 a8" order="1"></bond><bond id="b8" atomRefs2="a8 a9" order="1"></bond><bond id="b9" atomRefs2="a9 a10" order="1"></bond><bond id="b10" atomRefs2="a5 a11" order="1"></bond><bond id="b11" atomRefs2="a11 a12" order="1"></bond><bond id="b12" atomRefs2="a11 a13" order="2"></bond><bond id="b13" atomRefs2="a12 a14" order="1"></bond><bond id="b14" atomRefs2="a12 a15" order="1"><bondStereo>H</bondStereo></bond><bond id="b15" atomRefs2="a14 a16" order="1"></bond><bond id="b16" atomRefs2="a16 a17" order="1"></bond><bond id="b17" atomRefs2="a15 a18" order="1"></bond><bond id="b18" atomRefs2="a19 a20" order="1"></bond><bond id="b19" atomRefs2="a20 a21" order="2"></bond><bond id="b20" atomRefs2="a21 a22" order="1"></bond><bond id="b21" atomRefs2="a22 a23" order="2"></bond><bond id="b22" atomRefs2="a18 a19" order="2"></bond><bond id="b23" atomRefs2="a18 a23" order="1"></bond><bond id="b24" atomRefs2="a16 a24" order="2"></bond><bond id="b25" atomRefs2="a17 a25" order="1"></bond><bond id="b26" atomRefs2="a17 a26" order="1"><bondStereo>W</bondStereo></bond><bond id="b27" atomRefs2="a26 a27" order="1"></bond><bond id="b28" atomRefs2="a28 a29" order="1"></bond><bond id="b29" atomRefs2="a29 a30" order="2"></bond><bond id="b30" atomRefs2="a30 a31" order="1"></bond><bond id="b31" atomRefs2="a31 a32" order="2"></bond><bond id="b32" atomRefs2="a27 a28" order="2"></bond><bond id="b33" atomRefs2="a27 a32" order="1"></bond><bond id="b34" atomRefs2="a33 a34" order="2"></bond><bond id="b35" atomRefs2="a34 a35" order="1"></bond><bond id="b36" atomRefs2="a35 a36" order="2"></bond><bond id="b37" atomRefs2="a29 a33" order="1"></bond><bond id="b38" atomRefs2="a30 a36" order="1"></bond><bond id="b39" atomRefs2="a25 a37" order="1"></bond><bond id="b40" atomRefs2="a37 a38" order="1"></bond><bond id="b41" atomRefs2="a37 a39" order="2"></bond><bond id="b42" atomRefs2="a38 a40" order="1"></bond><bond id="b43" atomRefs2="a38 a41" order="1"><bondStereo>W</bondStereo></bond><bond id="b44" atomRefs2="a40 a42" order="1"></bond><bond id="b45" atomRefs2="a42 a43" order="1"></bond><bond id="b46" atomRefs2="a42 a44" order="2"></bond><bond id="b47" atomRefs2="a43 a45" order="1"></bond><bond id="b48" atomRefs2="a43 a46" order="1"></bond><bond id="b49" atomRefs2="a43 a47" order="1"></bond><bond id="b50" atomRefs2="a41 a48" order="1"></bond><bond id="b51" atomRefs2="a49 a50" order="1"></bond><bond id="b52" atomRefs2="a50 a51" order="2"></bond><bond id="b53" atomRefs2="a51 a52" order="1"></bond><bond id="b54" atomRefs2="a48 a49" order="1"></bond><bond id="b55" atomRefs2="a48 a52" order="2"></bond></bondArray></molecule></MChemicalStruct></MDocument>
</cml>-->
  <defs id="genericDefs" />
  <g>
    <defs id="defs1">
      <clipPath clipPathUnits="userSpaceOnUse" id="clipPath1">
        <path d="M0 0 L2110 0 L2110 1450 L0 1450 L0 0 Z" />
      </clipPath>
      <clipPath clipPathUnits="userSpaceOnUse" id="clipPath2">
        <path d="M404.2250061035156 108 C416.8585205078125 108 427.1000061035156 120.7598876953125 427.1000061035156 136.5 L427.1000061035156 178.3000030517578 C427.1000061035156 194.0401153564453 416.8585205078125 206.8000030517578 404.2250061035156 206.8000030517578 L382.875 206.8000030517578 C370.2414855957031 206.8000030517578 360 194.0401153564453 360 178.3000030517578 L360 136.5 C360 120.7598876953125 370.2414855957031 108 382.875 108 ZM674.4500122070312 132 C699.717041015625 132 720.2000122070312 144.7598876953125 720.2000122070312 160.5 L720.2000122070312 202.3000030517578 C720.2000122070312 218.0401153564453 699.717041015625 230.8000030517578 674.4500122070312 230.8000030517578 L631.75 230.8000030517578 C606.4829711914062 230.8000030517578 586 218.0401153564453 586 202.3000030517578 L586 160.5 C586 144.7598876953125 606.4829711914062 132 631.75 132 ZM401.125 382 C414.5869445800781 382 425.5 394.7598876953125 425.5 410.5 L425.5 452.29998779296875 C425.5 468.0401306152344 414.5869445800781 480.79998779296875 401.125 480.79998779296875 L378.375 480.79998779296875 C364.9130554199219 480.79998779296875 354 468.0401306152344 354 452.29998779296875 L354 410.5 C354 394.7598876953125 364.9130554199219 382 378.375 382 ZM1130.125 382 C1143.5869140625 382 1154.5 394.7598876953125 1154.5 410.5 L1154.5 452.29998779296875 C1154.5 468.0401306152344 1143.5869140625 480.79998779296875 1130.125 480.79998779296875 L1107.375 480.79998779296875 C1093.9130859375 480.79998779296875 1083 468.0401306152344 1083 452.29998779296875 L1083 410.5 C1083 394.7598876953125 1093.9130859375 382 1107.375 382 ZM1860.125 382 C1873.5869140625 382 1884.5 394.7598876953125 1884.5 410.5 L1884.5 452.29998779296875 C1884.5 468.0401306152344 1873.5869140625 480.79998779296875 1860.125 480.79998779296875 L1837.375 480.79998779296875 C1823.9130859375 480.79998779296875 1813 468.0401306152344 1813 452.29998779296875 L1813 410.5 C1813 394.7598876953125 1823.9130859375 382 1837.375 382 ZM82.0999984741211 571.6170654296875 C82.0999984741211 571.6170654296875 82.0999984741211 571.6170654296875 82.0999984741211 571.6170654296875 L82.0999984741211 571.6170654296875 L82.0999984741211 571.6170654296875 ZM112 575.082763671875 L112 575.082763671875 L112 575.082763671875 C112 575.082763671875 112 575.082763671875 112 575.082763671875 ZM886.2249755859375 446 C898.8585205078125 446 909.0999755859375 458.7598876953125 909.0999755859375 474.5 L909.0999755859375 516.2999877929688 C909.0999755859375 522.7159423828125 907.3983764648438 528.63671875 904.5266723632812 533.4000244140625 L904.5266723632812 533.4000244140625 C907.3983764648438 538.1632690429688 909.0999755859375 544.0840454101562 909.0999755859375 550.5 L909.0999755859375 592.2999877929688 C909.0999755859375 608.0401000976562 898.8585205078125 620.7999877929688 886.2249755859375 620.7999877929688 L864.875 620.7999877929688 C852.2415161132812 620.7999877929688 842 608.0401000976562 842 592.2999877929688 L842 550.5 C842 544.0840454101562 843.70166015625 538.1632690429688 846.5733032226562 533.4000244140625 L846.5733032226562 533.4000244140625 C843.70166015625 528.63671875 842 522.7159423828125 842 516.2999877929688 L842 474.5 C842 458.7598876953125 852.2415161132812 446 864.875 446 ZM1616.2249755859375 446 C1628.8585205078125 446 1639.0999755859375 458.7598876953125 1639.0999755859375 474.5 L1639.0999755859375 516.2999877929688 C1639.0999755859375 522.7159423828125 1637.3983154296875 528.63671875 1634.5267333984375 533.4000244140625 L1634.5267333984375 533.4000244140625 C1637.3983154296875 538.1632690429688 1639.0999755859375 544.0840454101562 1639.0999755859375 550.5 L1639.0999755859375 592.2999877929688 C1639.0999755859375 608.0401000976562 1628.8585205078125 620.7999877929688 1616.2249755859375 620.7999877929688 L1594.875 620.7999877929688 C1582.241455078125 620.7999877929688 1572 608.0401000976562 1572 592.2999877929688 L1572 550.5 C1572 544.0840454101562 1573.70166015625 538.1632690429688 1576.5733642578125 533.4000244140625 L1576.5733642578125 533.4000244140625 C1573.70166015625 528.63671875 1572 522.7159423828125 1572 516.2999877929688 L1572 474.5 C1572 458.7598876953125 1582.241455078125 446 1594.875 446 ZM2071.199951171875 638.1012573242188 C2071.199951171875 638.1012573242188 2071.199951171875 638.1012573242188 2071.199951171875 638.1012573242188 L2071.199951171875 638.1012573242188 L2071.199951171875 638.1012573242188 ZM156.22500610351562 522 C168.8585205078125 522 179.10000610351562 534.7598876953125 179.10000610351562 550.5 L179.10000610351562 592.2999877929688 C179.10000610351562 608.0401000976562 168.8585205078125 620.7999877929688 156.22500610351562 620.7999877929688 L134.875 620.7999877929688 C126.77915954589844 620.7999877929688 119.66561889648438 615.5601196289062 115.5999984741211 607.6539306640625 L115.5999984741211 607.6539306640625 L115.5999984741211 622.5750122070312 C115.5999984741211 634.7943115234375 109.55584716796875 644.7000122070312 102.0999984741211 644.7000122070312 L89.5 644.7000122070312 C82.04415893554688 644.7000122070312 76 634.7943115234375 76 622.5750122070312 L76 611.6764526367188 L76 611.6764526367188 C71.82228088378906 617.2881469726562 65.85281372070312 620.7999877929688 59.224998474121094 620.7999877929688 L37.875 620.7999877929688 C25.241485595703125 620.7999877929688 15 608.0401000976562 15 592.2999877929688 L15 550.5 C15 534.7598876953125 25.241485595703125 522 37.875 522 L59.224998474121094 522 C71.85851287841797 522 82.0999984741211 534.7598876953125 82.0999984741211 550.5 L82.0999984741211 571.6170654296875 L82.0999984741211 571.6170654296875 C84.22511291503906 569.3302001953125 86.76776885986328 568 89.5 568 L102.0999984741211 568 C106.0114974975586 568 109.53446197509766 570.726318359375 112 575.082763671875 L112 575.082763671875 L112 550.5 C112 534.7598876953125 122.24148559570312 522 134.875 522 ZM2025.449951171875 592 C2050.717041015625 592 2071.199951171875 604.7598876953125 2071.199951171875 620.5 L2071.199951171875 638.1012573242188 L2071.199951171875 638.1012573242188 C2071.6279296875 638.0342407226562 2072.0615234375 638 2072.5 638 L2085.10009765625 638 C2092.555908203125 638 2098.60009765625 647.9057006835938 2098.60009765625 660.125 L2098.60009765625 692.5750122070312 C2098.60009765625 704.7943115234375 2092.555908203125 714.7000122070312 2085.10009765625 714.7000122070312 L2072.5 714.7000122070312 C2065.044189453125 714.7000122070312 2059 704.7943115234375 2059 692.5750122070312 L2059 681.6764526367188 L2059 681.6764526367188 C2050.64453125 687.2881469726562 2038.7056884765625 690.7999877929688 2025.449951171875 690.7999877929688 L1982.75 690.7999877929688 C1957.4830322265625 690.7999877929688 1937 678.0401000976562 1937 662.2999877929688 L1937 620.5 C1937 604.7598876953125 1957.4830322265625 592 1982.75 592 ZM521.2249755859375 592 C533.8585205078125 592 544.0999755859375 604.7598876953125 544.0999755859375 620.5 L544.0999755859375 662.2999877929688 C544.0999755859375 668.7159423828125 542.3983764648438 674.63671875 539.5266723632812 679.4000244140625 L539.5266723632812 679.4000244140625 C542.3983764648438 684.1632690429688 544.0999755859375 690.0840454101562 544.0999755859375 696.5 L544.0999755859375 738.2999877929688 C544.0999755859375 754.0401000976562 533.8585205078125 766.7999877929688 521.2249755859375 766.7999877929688 L499.875 766.7999877929688 C487.2414855957031 766.7999877929688 477 754.0401000976562 477 738.2999877929688 L477 696.5 C477 690.0840454101562 478.70166015625 684.1632690429688 481.5733337402344 679.4000244140625 L481.5733337402344 679.4000244140625 C478.70166015625 674.63671875 477 668.7159423828125 477 662.2999877929688 L477 620.5 C477 604.7598876953125 487.2414855957031 592 499.875 592 ZM1251.2249755859375 592 C1263.8585205078125 592 1274.0999755859375 604.7598876953125 1274.0999755859375 620.5 L1274.0999755859375 662.2999877929688 C1274.0999755859375 668.7159423828125 1272.3983154296875 674.63671875 1269.5267333984375 679.4000244140625 L1269.5267333984375 679.4000244140625 C1272.3983154296875 684.1632690429688 1274.0999755859375 690.0840454101562 1274.0999755859375 696.5 L1274.0999755859375 738.2999877929688 C1274.0999755859375 754.0401000976562 1263.8585205078125 766.7999877929688 1251.2249755859375 766.7999877929688 L1229.875 766.7999877929688 C1217.241455078125 766.7999877929688 1207 754.0401000976562 1207 738.2999877929688 L1207 696.5 C1207 690.0840454101562 1208.70166015625 684.1632690429688 1211.5733642578125 679.4000244140625 L1211.5733642578125 679.4000244140625 C1208.70166015625 674.63671875 1207 668.7159423828125 1207 662.2999877929688 L1207 620.5 C1207 604.7598876953125 1217.241455078125 592 1229.875 592 ZM765.125 733 C778.5869140625 733 789.5 745.7598876953125 789.5 761.5 L789.5 803.2999877929688 C789.5 819.0401000976562 778.5869140625 831.7999877929688 765.125 831.7999877929688 L742.375 831.7999877929688 C728.9130859375 831.7999877929688 718 819.0401000976562 718 803.2999877929688 L718 761.5 C718 745.7598876953125 728.9130859375 733 742.375 733 ZM1495.125 733 C1508.5869140625 733 1519.5 745.7598876953125 1519.5 761.5 L1519.5 803.2999877929688 C1519.5 819.0401000976562 1508.5869140625 831.7999877929688 1495.125 831.7999877929688 L1472.375 831.7999877929688 C1458.9130859375 831.7999877929688 1448 819.0401000976562 1448 803.2999877929688 L1448 761.5 C1448 745.7598876953125 1458.9130859375 733 1472.375 733 ZM2071.199951171875 1200.101318359375 C2071.199951171875 1200.101318359375 2071.199951171875 1200.101318359375 2071.199951171875 1200.101318359375 L2071.199951171875 1200.101318359375 L2071.199951171875 1200.101318359375 ZM2025.449951171875 1154 C2050.717041015625 1154 2071.199951171875 1166.7598876953125 2071.199951171875 1182.5 L2071.199951171875 1200.101318359375 L2071.199951171875 1200.101318359375 C2071.6279296875 1200.0343017578125 2072.0615234375 1200 2072.5 1200 L2085.10009765625 1200 C2092.555908203125 1200 2098.60009765625 1209.9056396484375 2098.60009765625 1222.125 L2098.60009765625 1254.574951171875 C2098.60009765625 1266.7943115234375 2092.555908203125 1276.699951171875 2085.10009765625 1276.699951171875 L2072.5 1276.699951171875 C2065.044189453125 1276.699951171875 2059 1266.7943115234375 2059 1254.574951171875 L2059 1243.676513671875 L2059 1243.676513671875 C2050.64453125 1249.2880859375 2038.7056884765625 1252.800048828125 2025.449951171875 1252.800048828125 L1982.75 1252.800048828125 C1957.4830322265625 1252.800048828125 1937 1240.0401611328125 1937 1224.300048828125 L1937 1182.5 C1937 1166.7598876953125 1957.4830322265625 1154 1982.75 1154 ZM0 0 L0 1450 L2110 1450 L2110 0 Z" />
      </clipPath>
    </defs>
    <g text-rendering="optimizeLegibility" font-size="84" shape-rendering="geometricPrecision" font-family="&apos;Arial&apos;">
      <text xml:space="preserve" x="1937" y="668" clip-path="url(#clipPath1)" stroke="none">NH
      </text>
      <text font-size="65" x="2059" y="697" clip-path="url(#clipPath1)" stroke="none" xml:space="preserve">2
      </text>
      <text xml:space="preserve" x="1813" y="458" clip-path="url(#clipPath1)" stroke="none">O
      </text>
      <text xml:space="preserve" x="1572" y="522" clip-path="url(#clipPath1)" stroke="none">H
      </text>
      <text xml:space="preserve" x="1572" y="598" clip-path="url(#clipPath1)" stroke="none">N
      </text>
      <text xml:space="preserve" x="1937" y="1230" clip-path="url(#clipPath1)" stroke="none">NH
      </text>
      <text font-size="65" x="2059" y="1259" clip-path="url(#clipPath1)" stroke="none" xml:space="preserve">2
      </text>
      <text xml:space="preserve" x="1448" y="809" clip-path="url(#clipPath1)" stroke="none">O
      </text>
      <text xml:space="preserve" x="1207" y="668" clip-path="url(#clipPath1)" stroke="none">N
      </text>
      <text xml:space="preserve" x="1207" y="744" clip-path="url(#clipPath1)" stroke="none">H
      </text>
      <text xml:space="preserve" x="1083" y="458" clip-path="url(#clipPath1)" stroke="none">O
      </text>
      <text xml:space="preserve" x="842" y="522" clip-path="url(#clipPath1)" stroke="none">H
      </text>
      <text xml:space="preserve" x="842" y="598" clip-path="url(#clipPath1)" stroke="none">N
      </text>
      <text xml:space="preserve" x="718" y="809" clip-path="url(#clipPath1)" stroke="none">O
      </text>
      <text xml:space="preserve" x="477" y="668" clip-path="url(#clipPath1)" stroke="none">N
      </text>
      <text xml:space="preserve" x="477" y="744" clip-path="url(#clipPath1)" stroke="none">H
      </text>
      <text xml:space="preserve" x="354" y="458" clip-path="url(#clipPath1)" stroke="none">O
      </text>
      <text xml:space="preserve" x="15" y="598" clip-path="url(#clipPath1)" stroke="none">H
      </text>
      <text font-size="65" x="76" y="627" clip-path="url(#clipPath1)" stroke="none" xml:space="preserve">2
      </text>
      <text xml:space="preserve" x="112" y="598" clip-path="url(#clipPath1)" stroke="none">N
      </text>
      <text xml:space="preserve" x="586" y="208" clip-path="url(#clipPath1)" stroke="none">NH
      </text>
      <text xml:space="preserve" x="360" y="184" clip-path="url(#clipPath1)" stroke="none">N
      </text>
      <line stroke-linecap="round" clip-path="url(#clipPath2)" fill="none" x1="1723.9573929561084" x2="1845.586009857219" y1="639.2426980682832" stroke-linejoin="bevel" y2="569.0203833592651" stroke-width="5.471868515014648" />
      <line stroke-linecap="round" clip-path="url(#clipPath2)" fill="none" x1="1845.586009857219" x2="1933.5341427950611" y1="569.0203833592651" stroke-linejoin="bevel" y2="619.7972615856531" stroke-width="5.471868515014648" />
      <line stroke-linecap="round" clip-path="url(#clipPath2)" fill="none" x1="1832.945993209596" x2="1832.945993209596" y1="576.318100373332" stroke-linejoin="bevel" y2="467.46662690648907" stroke-width="5.471868515014648" />
      <line stroke-linecap="round" clip-path="url(#clipPath2)" fill="none" x1="1858.2260265048424" x2="1858.2260265048426" y1="576.3181003733317" stroke-linejoin="bevel" y2="467.46662690648907" stroke-width="5.471868515014648" />
      <line stroke-linecap="round" clip-path="url(#clipPath2)" fill="none" x1="1723.9573929561084" x2="1636.0092600182666" y1="639.2426980682832" stroke-linejoin="bevel" y2="588.4658198418952" stroke-width="5.471868515014648" />
      <line stroke-linecap="round" clip-path="url(#clipPath2)" fill="none" x1="1734.4573929561084" x2="1713.4573929561084" y1="779.2426980682832" stroke-linejoin="bevel" y2="779.2426980682832" stroke-width="5.471868515014648" />
      <line stroke-linecap="round" clip-path="url(#clipPath2)" fill="none" x1="1733.4073929561084" x2="1714.5073929561083" y1="765.2426980682832" stroke-linejoin="bevel" y2="765.2426980682832" stroke-width="5.471868515014648" />
      <line stroke-linecap="round" clip-path="url(#clipPath2)" fill="none" x1="1732.3573929561085" x2="1715.5573929561083" y1="751.2426980682832" stroke-linejoin="bevel" y2="751.2426980682832" stroke-width="5.471868515014648" />
      <line stroke-linecap="round" clip-path="url(#clipPath2)" fill="none" x1="1731.3073929561083" x2="1716.6073929561085" y1="737.2426980682832" stroke-linejoin="bevel" y2="737.2426980682832" stroke-width="5.471868515014648" />
      <line stroke-linecap="round" clip-path="url(#clipPath2)" fill="none" x1="1730.2573929561083" x2="1717.6573929561084" y1="723.2426980682832" stroke-linejoin="bevel" y2="723.2426980682832" stroke-width="5.471868515014648" />
      <line stroke-linecap="round" clip-path="url(#clipPath2)" fill="none" x1="1729.2073929561084" x2="1718.7073929561084" y1="709.2426980682832" stroke-linejoin="bevel" y2="709.2426980682832" stroke-width="5.471868515014648" />
      <line stroke-linecap="round" clip-path="url(#clipPath2)" fill="none" x1="1728.1573929561084" x2="1719.7573929561083" y1="695.2426980682832" stroke-linejoin="bevel" y2="695.2426980682832" stroke-width="5.471868515014648" />
      <line stroke-linecap="round" clip-path="url(#clipPath2)" fill="none" x1="1727.1073929561085" x2="1720.8073929561083" y1="681.2426980682832" stroke-linejoin="bevel" y2="681.2426980682832" stroke-width="5.471868515014648" />
      <line stroke-linecap="round" clip-path="url(#clipPath2)" fill="none" x1="1726.0573929561083" x2="1721.8573929561085" y1="667.2426980682832" stroke-linejoin="bevel" y2="667.2426980682832" stroke-width="5.471868515014648" />
      <line stroke-linecap="round" clip-path="url(#clipPath2)" fill="none" x1="1725.0073929561083" x2="1722.9073929561084" y1="653.2426980682832" stroke-linejoin="bevel" y2="653.2426980682832" stroke-width="5.471868515014648" />
      <path stroke-linecap="round" clip-path="url(#clipPath2)" stroke-linejoin="bevel" d="M1723.9615478515625 641.9785766601562 L1723.9615478515625 641.9785766601562 C1725.472900390625 641.976318359375 1726.6956787109375 640.7498168945312 1726.693359375 639.2384643554688 C1726.6910400390625 637.7271728515625 1725.4644775390625 636.5044555664062 1723.9532470703125 636.5067749023438 L1723.9532470703125 636.5067749023438 C1722.44189453125 636.509033203125 1721.2191162109375 637.7355346679688 1721.221435546875 639.2468872070312 C1721.2237548828125 640.7581787109375 1722.4503173828125 641.9808959960938 1723.9615478515625 641.9785766601562 Z" stroke="none" stroke-width="5.471868515014648" />
      <line stroke-linecap="round" clip-path="url(#clipPath2)" fill="none" x1="1723.9573929561084" x2="1845.586009857219" y1="779.6873274863193" stroke-linejoin="bevel" y2="849.9096421953374" stroke-width="5.471868515014648" />
      <line stroke-linecap="round" clip-path="url(#clipPath2)" fill="none" x1="1845.586009857219" x2="1845.586009857219" y1="849.9096421953374" stroke-linejoin="bevel" y2="990.3542716133734" stroke-width="5.471868515014648" />
      <line stroke-linecap="round" clip-path="url(#clipPath2)" fill="none" x1="1845.586009857219" x2="1967.2146267583298" y1="990.3542716133734" stroke-linejoin="bevel" y2="1060.5765863223914" stroke-width="5.471868515014648" />
      <line stroke-linecap="round" clip-path="url(#clipPath2)" fill="none" x1="1967.2146267583298" x2="1967.2146267583298" y1="1060.5765863223914" stroke-linejoin="bevel" y2="1162.1303427751675" stroke-width="5.471868515014648" />
      <line stroke-linecap="round" clip-path="url(#clipPath2)" fill="none" x1="1568.6482920917292" x2="1480.7001591538872" y1="588.4658198418952" stroke-linejoin="bevel" y2="639.2426980682831" stroke-width="5.471868515014648" />
      <line stroke-linecap="round" clip-path="url(#clipPath2)" fill="none" x1="1480.7001591538872" x2="1359.0715422527767" y1="639.2426980682831" stroke-linejoin="bevel" y2="569.0203833592649" stroke-width="5.471868515014648" />
      <line stroke-linecap="round" clip-path="url(#clipPath2)" fill="none" x1="1493.3401758015104" x2="1493.3401758015102" y1="631.9449810542166" stroke-linejoin="bevel" y2="740.7964545210592" stroke-width="5.471868515014648" />
      <line stroke-linecap="round" clip-path="url(#clipPath2)" fill="none" x1="1468.0601425062637" x2="1468.0601425062637" y1="631.9449810542163" stroke-linejoin="bevel" y2="740.7964545210592" stroke-width="5.471868515014648" />
      <line stroke-linecap="round" clip-path="url(#clipPath2)" fill="none" x1="1359.0715422527767" x2="1271.1234093149346" y1="569.0203833592649" stroke-linejoin="bevel" y2="619.7972615856528" stroke-width="5.471868515014648" />
      <line stroke-linecap="round" clip-path="url(#clipPath2)" fill="none" x1="1348.5715422527767" x2="1369.5715422527767" y1="429.0203833592649" stroke-linejoin="bevel" y2="429.0203833592649" stroke-width="5.471868515014648" />
      <line stroke-linecap="round" clip-path="url(#clipPath2)" fill="none" x1="1349.6215422527766" x2="1368.5215422527767" y1="443.0203833592649" stroke-linejoin="bevel" y2="443.0203833592649" stroke-width="5.471868515014648" />
      <line stroke-linecap="round" clip-path="url(#clipPath2)" fill="none" x1="1350.6715422527766" x2="1367.4715422527768" y1="457.0203833592649" stroke-linejoin="bevel" y2="457.0203833592649" stroke-width="5.471868515014648" />
      <line stroke-linecap="round" clip-path="url(#clipPath2)" fill="none" x1="1351.7215422527768" x2="1366.4215422527766" y1="471.0203833592649" stroke-linejoin="bevel" y2="471.0203833592649" stroke-width="5.471868515014648" />
      <line stroke-linecap="round" clip-path="url(#clipPath2)" fill="none" x1="1352.7715422527767" x2="1365.3715422527766" y1="485.0203833592649" stroke-linejoin="bevel" y2="485.0203833592649" stroke-width="5.471868515014648" />
      <line stroke-linecap="round" clip-path="url(#clipPath2)" fill="none" x1="1353.8215422527767" x2="1364.3215422527767" y1="499.0203833592649" stroke-linejoin="bevel" y2="499.0203833592649" stroke-width="5.471868515014648" />
      <line stroke-linecap="round" clip-path="url(#clipPath2)" fill="none" x1="1354.8715422527766" x2="1363.2715422527767" y1="513.0203833592649" stroke-linejoin="bevel" y2="513.0203833592649" stroke-width="5.471868515014648" />
      <line stroke-linecap="round" clip-path="url(#clipPath2)" fill="none" x1="1355.9215422527766" x2="1362.2215422527768" y1="527.0203833592649" stroke-linejoin="bevel" y2="527.0203833592649" stroke-width="5.471868515014648" />
      <line stroke-linecap="round" clip-path="url(#clipPath2)" fill="none" x1="1356.9715422527768" x2="1361.1715422527766" y1="541.0203833592649" stroke-linejoin="bevel" y2="541.0203833592649" stroke-width="5.471868515014648" />
      <line stroke-linecap="round" clip-path="url(#clipPath2)" fill="none" x1="1358.0215422527767" x2="1360.1215422527766" y1="555.0203833592649" stroke-linejoin="bevel" y2="555.0203833592649" stroke-width="5.471868515014648" />
      <path stroke-linecap="round" clip-path="url(#clipPath2)" stroke-linejoin="bevel" d="M1359.07568359375 571.7562866210938 L1359.07568359375 571.7562866210938 C1360.5870361328125 571.7540283203125 1361.809814453125 570.5275268554688 1361.8074951171875 569.0161743164062 C1361.80517578125 567.5048828125 1360.57861328125 566.2821655273438 1359.0673828125 566.2844848632812 L1359.0673828125 566.2844848632812 C1357.5560302734375 566.2867431640625 1356.333251953125 567.5132446289062 1356.3355712890625 569.0245971679688 C1356.337890625 570.535888671875 1357.564453125 571.7586059570312 1359.07568359375 571.7562866210938 Z" stroke="none" stroke-width="5.471868515014648" />
      <line stroke-linecap="round" clip-path="url(#clipPath2)" fill="none" x1="1203.7624413883973" x2="1115.8143084505552" y1="619.7972615856528" stroke-linejoin="bevel" y2="569.0203833592648" stroke-width="5.471868515014648" />
      <line stroke-linecap="round" clip-path="url(#clipPath2)" fill="none" x1="1115.8143084505552" x2="994.1856915494446" y1="569.0203833592648" stroke-linejoin="bevel" y2="639.2426980682828" stroke-width="5.471868515014648" />
      <line stroke-linecap="round" clip-path="url(#clipPath2)" fill="none" x1="1359.0715422527767" x2="1259.7621924100517" y1="428.57575394122864" stroke-linejoin="bevel" y2="329.2664040985036" stroke-width="5.471868515014648" />
      <line stroke-linecap="round" clip-path="url(#clipPath2)" fill="none" x1="1296.110214117763" x2="1196.7986793972402" y1="193.60684767026945" stroke-linejoin="bevel" y2="94.2953129497466" stroke-width="5.471868515014648" />
      <line stroke-linecap="round" clip-path="url(#clipPath2)" fill="none" x1="1196.7986793972402" x2="1061.139122969006" y1="94.2953129497466" stroke-linejoin="bevel" y2="130.64333465745793" stroke-width="5.471868515014648" />
      <line stroke-linecap="round" clip-path="url(#clipPath2)" fill="none" x1="1189.2433754284295" x2="1081.7803350964184" y1="122.49137492431687" stroke-linejoin="bevel" y2="151.28454678487032" stroke-width="5.471868515014648" />
      <line stroke-linecap="round" clip-path="url(#clipPath2)" fill="none" x1="1061.139122969006" x2="1024.7911012612947" y1="130.64333465745793" stroke-linejoin="bevel" y2="266.30289108569207" stroke-width="5.471868515014648" />
      <line stroke-linecap="round" clip-path="url(#clipPath2)" fill="none" x1="1024.7911012612947" x2="1124.1026359818175" y1="266.30289108569207" stroke-linejoin="bevel" y2="365.61442580621497" stroke-width="5.471868515014648" />
      <line stroke-linecap="round" clip-path="url(#clipPath2)" fill="none" x1="1052.987163235865" x2="1131.6579399506284" y1="258.7475871168813" stroke-linejoin="bevel" y2="337.41836383164474" stroke-width="5.471868515014648" />
      <line stroke-linecap="round" clip-path="url(#clipPath2)" fill="none" x1="1259.7621924100517" x2="1296.110214117763" y1="329.2664040985036" stroke-linejoin="bevel" y2="193.60684767026945" stroke-width="5.471868515014648" />
      <line stroke-linecap="round" clip-path="url(#clipPath2)" fill="none" x1="1239.1209802826393" x2="1267.9141521431927" y1="308.6251919710912" stroke-linejoin="bevel" y2="201.1621516390802" stroke-width="5.471868515014648" />
      <line stroke-linecap="round" clip-path="url(#clipPath2)" fill="none" x1="1259.7621924100517" x2="1124.1026359818175" y1="329.2664040985036" stroke-linejoin="bevel" y2="365.61442580621497" stroke-width="5.471868515014648" />
      <line stroke-linecap="round" clip-path="url(#clipPath2)" fill="none" x1="1103.174291802932" x2="1103.174291802932" y1="576.3181003733315" stroke-linejoin="bevel" y2="467.4666269064886" stroke-width="5.471868515014648" />
      <line stroke-linecap="round" clip-path="url(#clipPath2)" fill="none" x1="1128.4543250981785" x2="1128.4543250981785" y1="576.3181003733315" stroke-linejoin="bevel" y2="467.4666269064886" stroke-width="5.471868515014648" />
      <line stroke-linecap="round" clip-path="url(#clipPath2)" fill="none" x1="994.1856915494446" x2="906.2375586116027" y1="639.2426980682828" stroke-linejoin="bevel" y2="588.4658198418949" stroke-width="5.471868515014648" />
      <path d="M996.921630859375 639.24267578125 L991.4497680664062 639.24267578125 L984.0028686523438 773.3737182617188 L1005.565673828125 794.9365234375" clip-path="url(#clipPath2)" stroke="none" />
      <line stroke-linecap="round" clip-path="url(#clipPath2)" fill="none" x1="994.1856915494445" x2="1093.4950413921697" y1="779.687327486319" stroke-linejoin="bevel" y2="878.9966773290441" stroke-width="5.471868515014648" />
      <line stroke-linecap="round" clip-path="url(#clipPath2)" fill="none" x1="1057.1470196844582" x2="1156.458554404981" y1="1014.6562337572782" stroke-linejoin="bevel" y2="1113.967768477801" stroke-width="5.471868515014648" />
      <line stroke-linecap="round" clip-path="url(#clipPath2)" fill="none" x1="1156.458554404981" x2="1292.118110833215" y1="1113.967768477801" stroke-linejoin="bevel" y2="1077.6197467700897" stroke-width="5.471868515014648" />
      <line stroke-linecap="round" clip-path="url(#clipPath2)" fill="none" x1="1177.0991461885678" x2="1284.5621865205787" y1="1134.609146817395" stroke-linejoin="bevel" y2="1105.8159749568415" stroke-width="5.471868515014648" />
      <line stroke-linecap="round" clip-path="url(#clipPath2)" fill="none" x1="1292.118110833215" x2="1328.4661325409268" y1="1077.6197467700897" stroke-linejoin="bevel" y2="941.9601903418557" stroke-width="5.471868515014648" />
      <line stroke-linecap="round" clip-path="url(#clipPath2)" fill="none" x1="1328.4661325409268" x2="1229.154597820404" y1="941.9601903418557" stroke-linejoin="bevel" y2="842.6486556213329" stroke-width="5.471868515014648" />
      <line stroke-linecap="round" clip-path="url(#clipPath2)" fill="none" x1="1300.2700705663565" x2="1221.599293851593" y1="949.5154943106663" stroke-linejoin="bevel" y2="870.8447175959031" stroke-width="5.471868515014648" />
      <line stroke-linecap="round" clip-path="url(#clipPath2)" fill="none" x1="1093.4950413921697" x2="1057.1470196844582" y1="878.9966773290441" stroke-linejoin="bevel" y2="1014.6562337572782" stroke-width="5.471868515014648" />
      <line stroke-linecap="round" clip-path="url(#clipPath2)" fill="none" x1="1114.136253519582" x2="1085.3430816590285" y1="899.6378894564565" stroke-linejoin="bevel" y2="1007.1009297884675" stroke-width="5.471868515014648" />
      <line stroke-linecap="round" clip-path="url(#clipPath2)" fill="none" x1="1093.4950413921697" x2="1229.154597820404" y1="878.9966773290441" stroke-linejoin="bevel" y2="842.6486556213329" stroke-width="5.471868515014648" />
      <line stroke-linecap="round" clip-path="url(#clipPath2)" fill="none" x1="1120.1045634141383" x2="1219.4101288515296" y1="1249.628924289363" stroke-linejoin="bevel" y2="1348.942058393214" stroke-width="5.471868515014648" />
      <line stroke-linecap="round" clip-path="url(#clipPath2)" fill="none" x1="1148.3009132745408" x2="1226.966053164166" y1="1242.0746947796965" stroke-linejoin="bevel" y2="1320.7458302064622" stroke-width="5.471868515014648" />
      <line stroke-linecap="round" clip-path="url(#clipPath2)" fill="none" x1="1219.4101288515296" x2="1355.069685279764" y1="1348.942058393214" stroke-linejoin="bevel" y2="1312.5940366855027" stroke-width="5.471868515014648" />
      <line stroke-linecap="round" clip-path="url(#clipPath2)" fill="none" x1="1355.069685279764" x2="1391.4236762706066" y1="1312.5940366855027" stroke-linejoin="bevel" y2="1176.9328808739406" stroke-width="5.471868515014648" />
      <line stroke-linecap="round" clip-path="url(#clipPath2)" fill="none" x1="1334.429093496177" x2="1363.2273264102043" y1="1291.9526583459085" stroke-linejoin="bevel" y2="1184.4871103836072" stroke-width="5.471868515014648" />
      <line stroke-linecap="round" clip-path="url(#clipPath2)" fill="none" x1="1156.458554404981" x2="1120.1045634141383" y1="1113.967768477801" stroke-linejoin="bevel" y2="1249.628924289363" stroke-width="5.471868515014648" />
      <line stroke-linecap="round" clip-path="url(#clipPath2)" fill="none" x1="1292.118110833215" x2="1391.4236762706066" y1="1077.6197467700897" stroke-linejoin="bevel" y2="1176.9328808739406" stroke-width="5.471868515014648" />
      <line stroke-linecap="round" clip-path="url(#clipPath2)" fill="none" x1="838.8765906850654" x2="750.9284577472234" y1="588.4658198418949" stroke-linejoin="bevel" y2="639.2426980682828" stroke-width="5.471868515014648" />
      <line stroke-linecap="round" clip-path="url(#clipPath2)" fill="none" x1="750.9284577472234" x2="629.2998408461128" y1="639.2426980682828" stroke-linejoin="bevel" y2="569.0203833592649" stroke-width="5.471868515014648" />
      <line stroke-linecap="round" clip-path="url(#clipPath2)" fill="none" x1="763.5684743948467" x2="763.5684743948467" y1="631.9449810542162" stroke-linejoin="bevel" y2="740.7964545210589" stroke-width="5.471868515014648" />
      <line stroke-linecap="round" clip-path="url(#clipPath2)" fill="none" x1="738.2884410996002" x2="738.2884410996002" y1="631.9449810542162" stroke-linejoin="bevel" y2="740.7964545210589" stroke-width="5.471868515014648" />
      <line stroke-linecap="round" clip-path="url(#clipPath2)" fill="none" x1="629.2998408461128" x2="541.3517079082708" y1="569.0203833592649" stroke-linejoin="bevel" y2="619.7972615856528" stroke-width="5.471868515014648" />
      <path d="M626.5639038085938 569.0203857421875 L632.0357666015625 569.0203857421875 L639.186279296875 440.2276916503906 L617.3096923828125 402.3363342285156" clip-path="url(#clipPath2)" stroke="none" />
      <line stroke-linecap="round" clip-path="url(#clipPath2)" fill="none" x1="473.99073998173344" x2="386.0426070438915" y1="619.7972615856528" stroke-linejoin="bevel" y2="569.0203833592648" stroke-width="5.471868515014648" />
      <line stroke-linecap="round" clip-path="url(#clipPath2)" fill="none" x1="386.0426070438915" x2="264.4139901427809" y1="569.0203833592648" stroke-linejoin="bevel" y2="639.2426980682828" stroke-width="5.471868515014648" />
      <line stroke-linecap="round" clip-path="url(#clipPath2)" fill="none" x1="373.40259039626824" x2="373.40259039626824" y1="576.3181003733314" stroke-linejoin="bevel" y2="467.4666269064886" stroke-width="5.471868515014648" />
      <line stroke-linecap="round" clip-path="url(#clipPath2)" fill="none" x1="398.68262369151483" x2="398.6826236915148" y1="576.3181003733314" stroke-linejoin="bevel" y2="467.4666269064886" stroke-width="5.471868515014648" />
      <line stroke-linecap="round" clip-path="url(#clipPath2)" fill="none" x1="264.4139901427809" x2="176.4658572049389" y1="639.2426980682828" stroke-linejoin="bevel" y2="588.4658198418949" stroke-width="5.471868515014648" />
      <line stroke-linecap="round" clip-path="url(#clipPath2)" fill="none" x1="264.4139901427809" x2="194.19167543376284" y1="639.2426980682828" stroke-linejoin="bevel" y2="760.8713149693936" stroke-width="5.471868515014648" />
      <line stroke-linecap="round" clip-path="url(#clipPath2)" fill="none" x1="264.4139901427809" x2="334.63630485179885" y1="639.2426980682828" stroke-linejoin="bevel" y2="760.8713149693936" stroke-width="5.471868515014648" />
      <line stroke-linecap="round" clip-path="url(#clipPath2)" fill="none" x1="629.2998408461128" x2="559.0775261370948" y1="428.57575394122864" stroke-linejoin="bevel" y2="306.94713704011804" stroke-width="5.471868515014648" />
      <line stroke-linecap="round" clip-path="url(#clipPath2)" fill="none" x1="587.2971059169405" x2="511.83349671313397" y1="152.62029586071992" stroke-linejoin="bevel" y2="84.67273484134853" stroke-width="5.471868515014648" />
      <line stroke-linecap="round" clip-path="url(#clipPath2)" fill="none" x1="511.83349671313397" x2="423.8847458972099" y1="84.67273484134853" stroke-linejoin="bevel" y2="135.44996979981363" stroke-width="5.471868515014648" />
      <line stroke-linecap="round" clip-path="url(#clipPath2)" fill="none" x1="508.56722983169163" x2="436.52476254483315" y1="115.74938296086098" stroke-linejoin="bevel" y2="157.34312084201355" stroke-width="5.471868515014648" />
      <line stroke-linecap="round" clip-path="url(#clipPath2)" fill="none" x1="398.2900795615866" x2="419.4025889276521" y1="192.93643089131115" stroke-linejoin="bevel" y2="292.2636140327544" stroke-width="5.471868515014648" />
      <line stroke-linecap="round" clip-path="url(#clipPath2)" fill="none" x1="559.0775261370948" x2="600.3811264851607" y1="306.94713704011804" stroke-linejoin="bevel" y2="214.17225871652764" stroke-width="5.471868515014648" />
      <line stroke-linecap="round" clip-path="url(#clipPath2)" fill="none" x1="559.0775261370948" x2="419.4025889276521" y1="306.94713704011804" stroke-linejoin="bevel" y2="292.2636140327544" stroke-width="5.471868515014648" />
      <line stroke-linecap="round" clip-path="url(#clipPath2)" fill="none" x1="543.4533574891644" x2="440.31158782436546" y1="279.88528311587805" stroke-linejoin="bevel" y2="269.04236041155417" stroke-width="5.471868515014648" />
    </g>
  </g>
</svg>
