<?xml version="1.0" encoding="UTF-8" standalone="no"?>
<svg xmlns="http://www.w3.org/2000/svg" height="100%" width="100%" viewBox="120.95 108.08 509.05 314.09">
  <g>
    <path d="m459.45 373.1h-1v-24.73l0.5 0.29 0.5 0.29z"/>
    <path d="m459.45 348.95-0.5-0.29-0.5-0.29 25.98-15 0.5 0.29-0.02 0.59z"/>
    <path d="m485.43 333.34-0.5 0.32-0.5-0.29v-24.07h1z"/>
    <path d="m480.62 300.59-0.25 0.44-0.25 0.43-21.67-12.51 0.5-0.29 0.5-0.29z"/>
    <path d="m459.45 288.37-0.5 0.29-0.5 0.29v-30l0.5-0.29 0.5 0.32z"/>
    <path d="m458.93 258.07 0.02 0.59-0.5 0.29-21.17-12.22 0.25-0.44 0.25-0.43z"/>
    <path d="m433.47 238.1h-1v-24.15l0.5-0.29 0.5-0.29z"/>
    <path d="m433.47 213.37-0.5 0.29-0.5 0.29-25.48-14.71v-1.16z"/>
    <path d="m406.99 198.08v1.16l-21.11 12.18-0.25-0.43-0.25-0.43z"/>
    <path d="m376.72 210.6-0.25 0.44-0.25 0.43-21.19-12.23v-1.16z"/>
    <path d="m355.03 198.08v1.16l-25.49 14.71-0.5-0.29 0.02-0.59z"/>
    <path d="m328.54 213.98 0.5-0.32 0.5 0.29v24.15h-1z"/>
    <path d="m324.32 245.81 0.25 0.43 0.25 0.44-21.26 12.27-0.5-0.29-0.5-0.29z"/>
    <path d="m302.56 258.37 0.5 0.29 0.5 0.29v29.42l-0.5 0.29-0.5 0.29z"/>
    <path d="m302.56 288.95 0.5-0.29 0.5-0.29 25.98 15-0.5 0.29-0.5 0.29z"/>
    <path d="m328.54 303.95 0.5-0.29 0.5-0.29v30l-0.5 0.29-0.5 0.29z"/>
    <path d="m328.54 333.95 0.5-0.29 0.5-0.29 21.18 12.22-0.25 0.44-0.25 0.43z"/>
    <path d="m354.53 354.3h1v24.07l-0.5 0.29-0.5 0.29z"/>
    <path d="m354.53 378.95 0.5-0.29 0.5-0.29 25.88 14.95-0.4 0.34-0.4 0.34z"/>
    <path d="m380.61 394 0.4-0.34 0.4-0.34 10.69 27.85-0.34 0.5-0.34 0.5z"/>
    <path d="m391.42 422.17 0.34-0.5 0.34-0.5h29.32l0.34 0.5 0.34 0.5z"/>
    <path d="m422.1 422.17-0.34-0.5-0.34-0.5 10.94-27.34 0.61-0.17 0.4 0.35z"/>
    <path d="m454.22 380.81 0.25 0.44 0.25 0.43-21.35 12.33-0.4-0.35 0.08-0.62z"/>
    <path d="m404.57 368.65 0.86 0.64 6.53-23.55-0.96-0.27z"/>
    <path d="m400.95 368.22 1.09-0.18 6.45-23.26-0.96-0.27z"/>
    <path d="m406.53 367.28-3.22 1.05-3.53 1.1-21.22 3.55-0.09-0.5-0.08-0.49z"/>
    <path d="m433.05 393.04-0.08 0.62-0.61 0.17-32.58-24.4 3.53-1.1 3.22-1.05z"/>
    <path d="m328.54 332.45v-1.16l-21.46 12.39 0.5 0.87z"/>
    <path d="m330.84 335.28-1-0.58-20.96 12.1 0.5 0.87z"/>
    <path d="m303.86 257.62 1-0.58-21.38-12.34-0.5 0.87z"/>
    <path d="m302.56 261.03v-1.16l-20.88-12.05-0.5 0.86z"/>
    <path d="m356.33 198.83 1 0.58v-24.91h-1z"/>
    <path d="m352.73 199.41 1-0.58v-24.33h-1z"/>
    <path d="m433.47 214.87v1.16l21.55-12.44-0.5-0.87z"/>
    <path d="m431.17 212.04 1 0.58 21.05-12.15-0.5-0.87z"/>
    <path d="m458.45 287.45v-1.16l-21.47 12.4 0.5 0.86z"/>
    <path d="m460.75 290.28-1-0.58-20.97 12.11 0.5 0.86z"/>
    <path d="m459.75 347.62 1-0.58-21.47-12.39-0.5 0.86z"/>
    <path d="m458.45 351.03v-1.16l-20.97-12.1-0.5 0.86z"/>
    <path d="m487.53 245.74-2.6-2.08-2.41-1.97 28.39 16.39v1.16z"/>
    <path d="m510.91 259.24v-1.16l25.98-15v1.16z"/>
    <path d="m567.68 256.46-0.25-0.43-0.25-0.44 21.67-12.51v1.16z"/>
    <path d="m590.15 243.83 1 0.58v-25.11h-1z"/>
    <path d="m586.55 244.41 1-0.58v-24.53h-1z"/>
    <path d="m588.85 244.24v-1.16l21.67 12.51-0.25 0.44-0.25 0.43z"/>
    <path d="m536.89 244.24v-1.16l21.73 12.55-0.25 0.43-0.25 0.43z"/>
    <path d="m459.45 258.98-0.5-0.32-0.02-0.59 23.59-16.38 2.41 1.97 2.6 2.08z"/>
    <path d="m407.24 169.09-0.25-0.43-0.25-0.43 25.73-14.86 0.5 0.29v0.58z"/>
    <path d="m433.47 153.37-0.5 0.29-0.5-0.29v-30l0.5 0.29 0.5 0.29z"/>
    <path d="m433.47 123.95-0.5-0.29-0.5-0.29 26.48-15.29v1.16z"/>
    <path d="m458.95 109.24v-1.16l26.48 15.29-0.5 0.29-0.5 0.29z"/>
    <path d="m484.43 123.95 0.5-0.29 0.5-0.29v30.58l-0.5-0.29-0.5-0.29z"/>
    <path d="m484.43 153.37 0.5 0.29 0.5 0.29-26.48 15.29v-1.16z"/>
    <path d="m432.97 154.24v-0.58l0.5-0.29 25.48 14.71v1.16z"/>
    <path d="m407.49 198.66h-1l-0.08-1h1.16z"/>
    <path d="m407.73 195.76h-1.48l-0.09-1h1.66z"/>
    <path d="m407.97 192.86h-1.96l-0.09-1h2.14z"/>
    <path d="m408.22 189.96h-2.46l-0.08-1h2.62z"/>
    <path d="m408.46 187.06h-2.94l-0.08-1h3.1z"/>
    <path d="m408.7 184.16h-3.42l-0.08-1h3.58z"/>
    <path d="m408.94 181.26h-3.9l-0.08-1h4.06z"/>
    <path d="m409.18 178.36h-4.38l-0.08-1h4.54z"/>
    <path d="m409.42 175.46h-4.86l-0.09-1h5.04z"/>
    <path d="m409.66 172.56h-5.34l-0.09-1h5.52z"/>
    <path d="m409.91 169.66h-5.84l-0.08-1h6z"/>
    <path d="m251.1 288.08v1.16l-25.46 14.7-0.52-0.28v-0.58z"/>
    <path d="m225.12 303.08v0.58l-0.52 0.28-25.46-14.7v-1.16z"/>
    <path d="m199.14 288.08v1.16l-25.98 15v-1.16z"/>
    <path d="m173.16 303.08v1.16l-25.98-15v-1.16z"/>
    <path d="m147.18 288.08v1.16l-25.73 14.85-0.25-0.43-0.25-0.43z"/>
    <path d="m252.4 288.83 1 0.58v-24.91h-1z"/>
    <path d="m248.8 289.41 1-0.58v-24.33h-1z"/>
    <path d="m251.1 289.24v-1.16l21.72 12.54-0.25 0.43-0.25 0.44z"/>
    <path d="m199.14 348.08v1.16l-26.23-15.15 0.25-0.43 0.25-0.43z"/>
    <path d="m197.84 348.49-1-0.58v25.19h1z"/>
    <path d="m201.44 347.91-1 0.58v24.61h1z"/>
    <path d="m199.14 349.24v-1.16l21.18-12.22 0.25 0.43 0.25 0.43z"/>
    <path d="m224.6 303.94 0.52-0.28 0.52 0.28 2.48 24.16h-6z"/>
    <path d="m302.81 288.23 0.5 0.86-0.82 0.59-0.6-1.04z"/>
    <path d="m300.09 289.45 0.8 1.39-0.82 0.58-0.9-1.56z"/>
    <path d="m297.37 290.68 1.1 1.9-0.82 0.59-1.2-2.08z"/>
    <path d="m294.65 291.9 1.4 2.42-0.82 0.59-1.5-2.6z"/>
    <path d="m291.93 293.12 1.7 2.95-0.82 0.59-1.8-3.12z"/>
    <path d="m289.21 294.35 2 3.46-0.82 0.59-2.1-3.64z"/>
    <path d="m286.49 295.57 2.3 3.99-0.82 0.58-2.4-4.15z"/>
    <path d="m283.77 296.8 2.6 4.5-0.82 0.59-2.7-4.68z"/>
    <path d="m281.05 298.02 2.9 5.02-0.82 0.59-3-5.2z"/>
    <path d="m564.54 298.1 0.1 0.49 0.11 0.49-24.26 5.15-0.46-0.41-0.46-0.41z"/>
    <path d="m539.57 303.41 0.46 0.41 0.46 0.41-3.06 29.12-0.54 0.31-0.47-0.31z"/>
    <path d="m536.92 334.22-0.03-0.56 0.54-0.31 26.74 11.91 0.13 0.6-0.41 0.37z"/>
    <path d="m563.89 346.23 0.41-0.37 0.56 0.12 9.1 27.98-0.39 0.43-0.39 0.43z"/>
    <path d="m573.18 374.82 0.39-0.43 0.39-0.43 28.77 6.12 0.18 0.55 0.18 0.55z"/>
    <path d="m603.09 381.18-0.18-0.55-0.18-0.55 19.7-21.86 0.56 0.12 0.56 0.12z"/>
    <path d="m623.55 358.46-0.56-0.12-0.56-0.12-9.1-27.98 0.39-0.43 0.39-0.43z"/>
    <path d="m614.11 329.38-0.39 0.43-0.39 0.43-28.78-6.12-0.18-0.55 0.32-0.44z"/>
    <path d="m572.02 303.18 0.43-0.25 0.44-0.25 11.8 20.45-0.32 0.44-0.61-0.06z"/>
    <path d="m564.86 345.98-0.56-0.12-0.13-0.6 19.59-21.75 0.61 0.06 0.18 0.55z"/>
    <path d="m508.5 350.63 2.41-1.97 2.6-2.08 22.91-13.23 0.47 0.31 0.03 0.56z"/>
    <path d="m484.91 334.25 0.02-0.59 0.5-0.32 28.08 13.24-2.6 2.08-2.41 1.97z"/>
    <path d="m317.7 122.99 0.36-0.5 0.36-0.5 7.62 23.45-0.47 0.16-0.48 0.15z"/>
    <path d="m322.59 153.86 0.29 0.4 0.3 0.41-19.62 14.24-0.5-0.25v-0.62z"/>
    <path d="m303.06 168.04v0.62l-0.5 0.25-24.36-17.69 0.59-0.19 0.59-0.19z"/>
    <path d="m279.38 150.84-0.59 0.19-0.59 0.19 7.59-23.37 0.48 0.15 0.48 0.16z"/>
    <path d="m318.42 121.99-0.36 0.5-0.36 0.5h-24.8v-1z"/>
    <path d="m303.56 195.37-0.5 3.29-0.5 3.07v-32.82l0.5-0.25 0.5 0.25z"/>
    <path d="m329.06 213.07-0.02 0.59-0.5 0.32-25.98-12.25 0.5-3.07 0.5-3.29z"/>
  </g>
  <g stroke="#000">
    <line y1="125.74" x2="458.95" x1="436.57" y2="112.82"/>
    <line y1="125.74" x2="481.33" x1="481.33" y2="151.58"/>
    <line y1="151.58" x2="458.95" x1="436.57" y2="164.5"/>
    <line y1="306.80" x2="540.74" x1="543.34" y2="331.43"/>
    <line y1="371.30" x2="601.63" x1="576.35" y2="376.68"/>
    <line y1="357.48" x2="610.94" x1="618.92" y2="332.9"/>
    <line y1="346.72" x2="585.65" x1="568.37" y2="327.52"/>
    <line y1="126.09" x2="322.14" x1="315.44" y2="146.71"/>
    <line y1="164.21" x2="283.02" x1="303.06" y2="149.65"/>
  </g>
  <g font-size="10px" font-family="Arial">
    <text><tspan y="382.21" x="455.35">NH</tspan></text>
    <text><tspan y="307.21" x="481.34">NH</tspan></text>
    <text><tspan y="247.23" x="422.56">HN</tspan></text>
    <text><tspan y="217.23" x="377.41">N</tspan><tspan y="227.44" x="377.41">H</tspan></text>
    <text><tspan y="247.23" x="325.45">NH</tspan></text>
    <text><tspan y="352.21" x="351.43">NH</tspan></text>
    <text><tspan y="343.05" x="407.42">O</tspan></text>
    <text><tspan y="376.86" x="359.32">H</tspan><tspan font-size="7.5px" dy="2.26">2</tspan><tspan dy="-2.26">N</tspan></text>
    <text><tspan y="352.28" x="299.16">O</tspan></text>
    <text><tspan y="247.28" x="273.18">O</tspan></text>
    <text><tspan y="172.28" x="351.12">O</tspan></text>
    <text><tspan y="202.28" x="455.04">O</tspan></text>
    <text><tspan y="307.28" x="429.06">O</tspan></text>
    <text><tspan y="337.28" x="429.06">O</tspan></text>
    <text><tspan y="262.21" x="559.28">N</tspan><tspan y="272.42" x="559.28">H</tspan></text>
    <text><tspan y="217.23" x="585.26">NH</tspan></text>
    <text><tspan y="262.21" x="611.24">NH</tspan><tspan font-size="7.5px" dy="2.26">2</tspan></text>
    <text><tspan y="262.28" x="247.20">O</tspan></text>
    <text><tspan y="307.21" x="273.49">N</tspan><tspan y="317.42" x="273.49">H</tspan></text>
    <text><tspan y="382.28" x="195.23">O</tspan></text>
    <text><tspan y="337.21" x="221.53">NH</tspan></text>
    <text><tspan y="301.16" x="565.78">NH</tspan></text>
    <text><tspan y="154.60" x="323.74">N</tspan></text>
    <text><tspan y="126.07" x="277.66">HN</tspan></text>
  </g>
</svg>
